<mxfile host="app.diagrams.net" modified="2020-09-30T15:27:14.786Z" agent="5.0 (Macintosh; Intel Mac OS X 10_15_6) AppleWebKit/537.36 (KHTML, like Gecko) Chrome/85.0.4183.121 Safari/537.36" etag="UXwC0XL9cvtP5dZJGslf" version="13.7.6" type="github">
  <diagram name="Page-1" id="f1b7ffb7-ca1e-a977-7cf5-a751b3c06c05">
    <mxGraphModel dx="1120" dy="698" grid="1" gridSize="10" guides="1" tooltips="1" connect="1" arrows="1" fold="1" page="1" pageScale="1" pageWidth="826" pageHeight="1169" background="#ffffff" math="0" shadow="0">
      <root>
        <mxCell id="0" />
        <mxCell id="1" parent="0" />
        <mxCell id="14" value="" style="verticalLabelPosition=bottom;verticalAlign=top;strokeWidth=1;shape=mxgraph.mockup.graphics.iconGrid;strokeColor=#CCCCCC;gridSize=1,1;" parent="1" vertex="1">
          <mxGeometry x="600" y="120" width="200" height="410" as="geometry" />
        </mxCell>
        <mxCell id="13" value="https://github.com/workforce-data-initiative/skills-api/wiki/API-Overview#test-client" style="verticalLabelPosition=bottom;verticalAlign=top;strokeWidth=1;shape=mxgraph.mockup.graphics.iconGrid;strokeColor=#CCCCCC;gridSize=1,1;" parent="1" vertex="1">
          <mxGeometry x="17.5" y="120" width="570" height="480" as="geometry" />
        </mxCell>
        <mxCell id="2" value="jobbr" style="text;spacingTop=-5;fontSize=70;fontStyle=0" parent="1" vertex="1">
          <mxGeometry x="120" y="25" width="230" height="30" as="geometry" />
        </mxCell>
        <mxCell id="4" value="" style="line;strokeWidth=1" parent="1" vertex="1">
          <mxGeometry x="20" y="90" width="780" height="10" as="geometry" />
        </mxCell>
        <mxCell id="37" value="" style="verticalLabelPosition=bottom;verticalAlign=top;strokeWidth=1;shape=mxgraph.mockup.misc.rating;strokeColor=#999999;fillColor=#ffff00;emptyFillColor=#ffffff;grade=4;ratingScale=5;ratingStyle=star;" parent="1" vertex="1">
          <mxGeometry x="510.00000000000006" y="585.0000000000002" width="77.5" height="10" as="geometry" />
        </mxCell>
        <mxCell id="38" value="Rate this article" style="text;spacingTop=-5;" parent="1" vertex="1">
          <mxGeometry x="410.0000000000001" y="580.0000000000001" width="30" height="20" as="geometry" />
        </mxCell>
        <mxCell id="47" value="Tags: Tag1 Tag2 Tag3 Tag4" style="text;spacingTop=-5;" parent="1" vertex="1">
          <mxGeometry x="20" y="580.0000000000002" width="210" height="20" as="geometry" />
        </mxCell>
        <mxCell id="Y56KB1iTKMDDHInSfqXf-61" value="Actor" style="shape=umlActor;verticalLabelPosition=bottom;verticalAlign=top;html=1;outlineConnect=0;" vertex="1" parent="1">
          <mxGeometry x="40" y="20" width="25" height="40" as="geometry" />
        </mxCell>
        <mxCell id="Y56KB1iTKMDDHInSfqXf-63" value="Search" style="strokeWidth=1;shadow=0;dashed=0;align=center;html=1;shape=mxgraph.mockup.forms.searchBox;strokeColor=#999999;mainText=;strokeColor2=#008cff;fontColor=#666666;fontSize=17;align=left;spacingLeft=3;" vertex="1" parent="1">
          <mxGeometry x="40" y="160" width="150" height="30" as="geometry" />
        </mxCell>
        <mxCell id="Y56KB1iTKMDDHInSfqXf-67" value="Enter Job below" style="text;spacingTop=-5;whiteSpace=wrap;html=1;align=left;fontSize=12;fontFamily=Helvetica;fillColor=none;strokeColor=none;" vertex="1" parent="1">
          <mxGeometry x="40" y="140" width="170" height="20" as="geometry" />
        </mxCell>
        <mxCell id="Y56KB1iTKMDDHInSfqXf-69" value="" style="verticalLabelPosition=bottom;shadow=0;dashed=0;align=center;html=1;verticalAlign=top;strokeWidth=1;shape=mxgraph.mockup.graphics.simpleIcon;strokeColor=#999999;" vertex="1" parent="1">
          <mxGeometry x="65" y="410" width="510" height="170" as="geometry" />
        </mxCell>
        <mxCell id="Y56KB1iTKMDDHInSfqXf-70" value="" style="verticalLabelPosition=bottom;shadow=0;dashed=0;align=center;html=1;verticalAlign=top;strokeWidth=1;shape=mxgraph.mockup.graphics.simpleIcon;strokeColor=#999999;" vertex="1" parent="1">
          <mxGeometry x="60" y="200" width="510" height="190" as="geometry" />
        </mxCell>
        <mxCell id="Y56KB1iTKMDDHInSfqXf-71" value="Related Jobs" style="text;strokeColor=none;fillColor=none;html=1;fontSize=24;fontStyle=1;verticalAlign=middle;align=center;" vertex="1" parent="1">
          <mxGeometry x="90" y="210" width="100" height="40" as="geometry" />
        </mxCell>
        <mxCell id="Y56KB1iTKMDDHInSfqXf-72" value="Recommended Readings" style="text;strokeColor=none;fillColor=none;html=1;fontSize=24;fontStyle=1;verticalAlign=middle;align=center;" vertex="1" parent="1">
          <mxGeometry x="160" y="410" width="100" height="40" as="geometry" />
        </mxCell>
        <mxCell id="Y56KB1iTKMDDHInSfqXf-73" value="Title" style="text;strokeColor=none;fillColor=none;html=1;fontSize=24;fontStyle=1;verticalAlign=middle;align=center;" vertex="1" parent="1">
          <mxGeometry x="300" y="390" width="100" height="40" as="geometry" />
        </mxCell>
        <mxCell id="Y56KB1iTKMDDHInSfqXf-74" value="Search History" style="text;strokeColor=none;fillColor=none;html=1;fontSize=24;fontStyle=1;verticalAlign=middle;align=center;" vertex="1" parent="1">
          <mxGeometry x="640" y="130" width="100" height="40" as="geometry" />
        </mxCell>
        <mxCell id="Y56KB1iTKMDDHInSfqXf-75" value="Farmer" style="strokeWidth=1;shadow=0;dashed=0;align=center;html=1;shape=mxgraph.mockup.buttons.button;strokeColor=#666666;fontColor=#ffffff;mainText=;buttonStyle=round;fontSize=17;fontStyle=1;fillColor=#008cff;whiteSpace=wrap;" vertex="1" parent="1">
          <mxGeometry x="625" y="180" width="150" height="50" as="geometry" />
        </mxCell>
        <mxCell id="Y56KB1iTKMDDHInSfqXf-76" value="Carpenter" style="strokeWidth=1;shadow=0;dashed=0;align=center;html=1;shape=mxgraph.mockup.buttons.button;strokeColor=#666666;fontColor=#ffffff;mainText=;buttonStyle=round;fontSize=17;fontStyle=1;fillColor=#008cff;whiteSpace=wrap;" vertex="1" parent="1">
          <mxGeometry x="625" y="250" width="150" height="50" as="geometry" />
        </mxCell>
        <mxCell id="Y56KB1iTKMDDHInSfqXf-77" value="Machinist" style="strokeWidth=1;shadow=0;dashed=0;align=center;html=1;shape=mxgraph.mockup.buttons.button;strokeColor=#666666;fontColor=#ffffff;mainText=;buttonStyle=round;fontSize=17;fontStyle=1;fillColor=#008cff;whiteSpace=wrap;" vertex="1" parent="1">
          <mxGeometry x="625" y="330" width="150" height="50" as="geometry" />
        </mxCell>
        <mxCell id="Y56KB1iTKMDDHInSfqXf-78" value="Welder" style="strokeWidth=1;shadow=0;dashed=0;align=center;html=1;shape=mxgraph.mockup.buttons.button;strokeColor=#666666;fontColor=#ffffff;mainText=;buttonStyle=round;fontSize=17;fontStyle=1;fillColor=#008cff;whiteSpace=wrap;" vertex="1" parent="1">
          <mxGeometry x="625" y="420" width="150" height="50" as="geometry" />
        </mxCell>
      </root>
    </mxGraphModel>
  </diagram>
</mxfile>
